<svg aria-hidden="true" style="position: absolute; width: 0; height: 0; overflow: hidden;" version="1.1" xmlns="http://www.w3.org/2000/svg" xmlns:xlink="http://www.w3.org/1999/xlink">
<defs>
<symbol id="facebook" viewBox="0 0 32 32">
<path d="M29 0h-26c-1.65 0-3 1.35-3 3v26c0 1.65 1.35 3 3 3h13v-14h-4v-4h4v-2c0-3.306 2.694-6 6-6h4v4h-4c-1.1 0-2 0.9-2 2v2h6l-1 4h-5v14h9c1.65 0 3-1.35 3-3v-26c0-1.65-1.35-3-3-3z"></path>
</symbol>
<symbol id="fav" viewBox="0 0 32 32">
<path fill="#fff" style="fill: var(--color1, #fff)" d="M-99.765-8h903.529v3261.176h-903.529v-3261.176z"></path>
<path fill="none" stroke="#e1e1e1" style="stroke: var(--color2, #e1e1e1)" stroke-linejoin="miter" stroke-linecap="butt" stroke-miterlimit="4" stroke-width="0.4706" d="M-40.086 126.907c-62.928-5.947-92.248-60.552-115.528-102.843-16.711-30.358-2.043-59.54 9.682-89.443 12.711-32.415 18.631-68.073 58.874-85.397 54.722-23.557 124.668-42.684 185.188-19.666 64.32 24.462 102.701 78.9 100.537 128.334-1.877 42.893-68.551 59.867-110.061 89.252-42.381 30.002-66.004 85.688-128.693 79.764z"></path>
<path fill="#000" style="fill: var(--color3, #000)" d="M-26.353 1.412h142.118v65.412h-142.118v-65.412z"></path>
<path fill="none" stroke="#fff" style="stroke: var(--color1, #fff)" stroke-linejoin="miter" stroke-linecap="square" stroke-miterlimit="4" stroke-width="1.4118" d="M-9.565 17.139c0-1.194 0.286-2.079 0.609-3.217 0.085-0.299 0.565-2.94 0.565-1.348 0 1.826 0 3.652 0 5.479 0 2.148 0.010 1.435 0.391-0.217 0.349-1.514 1.077-3.054 1.174-4.609 0.079-1.263-0.834 2.395-1.109 3.631-0.643 2.894 1.162-1.849 1.5-2.609 0.279-0.627 0.733 1.227 0.761 1.913 0.119 2.927 1.156 2.028 3.065 0.37 0.334-0.29 2.321-2.654 2.413-1.87 0.061 0.516-0.308 2.697 0.109 3 0.935 0.68 2.767-4.681 3.065-2.891 0.096 0.576 0.728 0.236 0.761 0.804 0.037 0.623 0.055 1.319-0.022 1.935-0.609 4.874-1.11-7.363 0.391-2.109 0.25 0.875 0.022 2.086 0.022 3 0 0.855-0.353-3.16 0.609-2.739 0.423 0.185-1.65 3.727-0.391 3.283 1.641-0.579 1.348-6.784 1.348-5.044 0 0.538 0.357 3.591-0.391 3.631-1.427 0.075-2.875 0-4.305 0"></path>
<path fill="none" stroke="#fff" style="stroke: var(--color1, #fff)" stroke-linejoin="miter" stroke-linecap="square" stroke-miterlimit="4" stroke-width="1.4118" d="M5.716 18.834c0.036 0.081 0.044 0.146 0.058 0.232"></path>
<path fill="none" stroke="#fff" style="stroke: var(--color1, #fff)" stroke-linejoin="miter" stroke-linecap="square" stroke-miterlimit="4" stroke-width="1.4118" d="M5.774 19.065c0.009-0.177 0.080-0.354 0.122-0.525 0.036-0.145 0.070-0.423 0.138-0.547 0.056-0.101 0.069-0.262 0.1-0.377 0.042-0.159 0.15-0.352 0.161-0.508 0.041-0.596 0-1.212 0-1.808"></path>
<path fill="none" stroke="#fff" style="stroke: var(--color1, #fff)" stroke-linejoin="miter" stroke-linecap="square" stroke-miterlimit="4" stroke-width="1.4118" d="M4.963 17.502c-0.103 1.278-0.306 2.602-0.833 3.778-0.068 0.152-0.167 0.178-0.254 0-0.313-0.64-0.448-1.447-0.669-2.124-0.168-0.514-0.288-1.046-0.473-1.554-0.093-0.255-0.179-0.729-0.322-0.222-0.208 0.737-0.29 1.564-0.335 2.326-0.005 0.091-0.023 1.198-0.006 0.579 0.026-0.991 0.031-2.2 0.447-3.124 0.127-0.282 0.214 0.408 0.216 0.418 0.155 0.839 0.145 1.695 0.145 2.545 0 0.491 0 0.497 0 0.010 0-1.113-0.009-2.226 0.18-3.327 0.109-0.636 0.282-1.255 0.467-1.873 0.059-0.199 0.16-0.787 0.209-0.586 0.066 0.269-0.007 0.678-0.026 0.94-0.045 0.615-0.115 1.228-0.18 1.841-0.109 1.027-0.23 2.045-0.47 3.050-0.038 0.16-0.099 0.678-0.264 0.804-0.142 0.109-0.241-0.281-0.286-0.454-0.374-1.414-0.267-2.962-0.267-4.412 0-0.043 0-0.172 0-0.129 0 0.183 0 0.367 0 0.55 0 1.021-0.086 2.023-0.193 3.038-0.119 1.121-0.085-0.822-0.084-0.904 0.014-0.838 0.064-1.674 0.187-2.503 0.047-0.314 0.090-1.029 0.299-1.316 0.080-0.11 0.020 0.273 0.010 0.409-0.044 0.576-0.112 1.151-0.174 1.725-0.112 1.033-0.148 2.063-0.232 3.096-0.043 0.529-0.246-0.196-0.27-0.315-0.167-0.825-0.203-1.703-0.232-2.542-0.014-0.416-0.006-0.833-0.006-1.249 0-0.605-0.032 1.21-0.058 1.815-0.028 0.658-0.047 2.634-0.058 1.976-0.014-0.849-0.109-1.694-0.148-2.542-0.026-0.559-0.026-1.117-0.026-1.676 0-0.35-0.005 0.794-0.006 0.827-0.024 0.814-0.095 1.63-0.18 2.439-0.029 0.278-0.076 0.555-0.097 0.833-0.006 0.077 0.002 0.297-0.032 0.228-0.226-0.452-0.179-1.193-0.238-1.68-0.104-0.856-0.2-1.714-0.2-2.578 0-1.506-0.109 3.010-0.228 4.511-0.027 0.336 0.006 1.331-0.087 1.007-0.27-0.938-0.173-2.075-0.193-3.038-0.017-0.846-0.013-1.693-0.013-2.539 0-0.107 0-1.067 0-0.467 0 2.274 0 4.548 0 6.822 0 0.143-0.019 0.545 0.058 0.425 0.113-0.177 0.165-0.487 0.216-0.673 0.148-0.543 0.28-1.090 0.409-1.638 0.146-0.62 0.292-1.24 0.441-1.86 0.043-0.177 0.117-0.382 0.209-0.087 0.144 0.461 0.114 0.981 0.116 1.458 0.003 0.654 0 1.309 0 1.963 0 0.312-0.016 0.069-0.029-0.093-0.047-0.578-0.029-1.161-0.029-1.741 0-0.762-0.046-1.48-0.383-2.178-0.156-0.324-0.35-0.646-0.447-0.994-0.065-0.234-0.058-0.472-0.129-0.708-0.066-0.217-0.075-0.148-0.167 0.090-0.347 0.894-0.517 1.856-0.701 2.793-0.11 0.557-0.22 1.111-0.364 1.66-0.106 0.407-0.051-0.839-0.074-1.258-0.093-1.656-0.225-3.307-0.225-4.968 0-1.021 0.043 2.044 0.148 3.060 0.057 0.548 0.084 1.096 0.084 1.648 0 0.48-0.211-0.938-0.286-1.413-0.121-0.759-0.224-1.519-0.235-2.288-0.004-0.27 0.027-1.078-0.013-0.811-0.241 1.605-0.335 3.301-0.335 4.923 0 0.037 0.008 0.51-0.003 0.315-0.042-0.759-0.055-1.515-0.055-2.275 0-0.774 0.038-1.56-0.026-2.333-0.030-0.367-0.099-1.128-0.29-0.341-0.394 1.629-0.098 3.269-0.27 4.907-0.033 0.317-0.324-0.934-0.335-1.017-0.127-1.005-0.122-2.023-0.122-3.034 0-0.258 0.065-0.653-0.045-0.901-0.027-0.060-0.013 0.131-0.013 0.196 0 0.353-0.003 0.706-0.013 1.059-0.022 0.815-0.056 1.63-0.042 2.446 0.002 0.094-0.034 1.052 0.145 1.084 0.402 0.073 0.523-5.129 0.534-5.519 0.010-0.372 0.006-0.749 0.042-1.12 0.004-0.037 0.003-0.075 0.016-0.109 0.026-0.071 0.014 0.15 0.013 0.225-0.017 1.543-0.364 3.018-0.753 4.505-0.354 1.352-0.796 2.694-1.049 4.071-0.031 0.171 0.026 0.634-0.097 0.512-0.139-0.139-0.013-0.393-0.019-0.589-0.041-1.327-0.124-2.645-0.071-3.974 0.041-1.033 0.18-2.061 0.193-3.096 0-0.015 0-0.060 0-0.045-0.005 0.339-0.016 0.676-0.048 1.014-0.145 1.532-0.495 3.043-0.914 4.521-0.050 0.177-0.119 0.694-0.183 0.521-0.081-0.215-0.011-0.76-0.010-0.94 0.017-1.657 0.121-3.297 0.454-4.923 0.051-0.251 0.314-1.459 0.296-0.47-0.034 1.905-0.474 3.801-0.804 5.67-0.010 0.059-0.133 1.586-0.357 0.837-0.347-1.163-0.369-2.441-0.489-3.639-0.005-0.052-0.237-1.509-0.312-1.316-0.149 0.383-0.197 0.831-0.277 1.229-0.132 0.661-0.293 1.316-0.431 1.976-0.122 0.58-0.216 1.166-0.331 1.747-0.036 0.181-0.103 0.719-0.138 0.537-0.067-0.342-0.038-0.753-0.042-1.094-0.008-0.789-0.006-1.579-0.003-2.368 0.002-0.409 0.003-1.011 0.026-1.435 0.006-0.115 0.015-0.23 0.032-0.344 0.036-0.248 0.050 0.044 0.051 0.068 0.072 1.337-0.064 2.702-0.232 4.025-0.076 0.599-0.14 1.019-0.238 1.596-0.006 0.033-0.063 0.659-0.161 0.743-0.125 0.108-0.116-0.31-0.154-0.47-0.11-0.457-0.212-0.919-0.283-1.384-0.159-1.044-0.133-2.104-0.232-3.153-0.037-0.395-0.084-0.79-0.129-1.184-0.011-0.095-0.013 0.191-0.013 0.286 0 0.921 0 1.843 0 2.764 0 0.473-0.013 0.95 0.013 1.422 0.001 0.020 0.027 0.465 0.1 0.148 0.137-0.592 0.011-1.256-0.093-1.841-0.086-0.485-0.196-0.964-0.267-1.451-0.004-0.026-0.024-0.58-0.1-0.627-0.064-0.040-0.035 0.149-0.032 0.225 0.016 0.37 0.12 0.723 0.29 1.052 0.5 0.973 1.431 1.933 2.503 2.249 1.34 0.395 1.877-1.35 1.976-2.375 0.070-0.728-1.269-0.27-1.525 0.006-0.346 0.373-0.674 0.86-0.846 1.339-0.111 0.308-0.341 0.976-0.206 1.313 0.102 0.255 0.836 0.050 0.994-0.006 0.499-0.178 0.864-0.632 0.943-1.155 0.075-0.493-0.264-0.98-0.795-0.994-0.275-0.007-0.561 0.043-0.637 0.348"></path>
<path fill="none" stroke="#fff" style="stroke: var(--color1, #fff)" stroke-linejoin="miter" stroke-linecap="square" stroke-miterlimit="4" stroke-width="1.4118" d="M23.002 22.863c0-0.283 0.129-1.132-0.069-1.35-0.392-0.431 0.875-0.108 0.951-0.184 0.109-0.109 0.015-0.706 0.015-0.844 0-0.62-0.069-1.232-0.069-1.852 0-0.681-0.071 0.151-0.123 0.403-0.049 0.24-0.218 0.261-0.433 0.234-0.146-0.018-0.535-0.245-0.268-0.341 0.326-0.119 0.662-0.199 1.016-0.207 0.345-0.008 0.667-0.043 0.943 0.123 0.444 0.267-1.072-0.108-1.503-0.395-0.113-0.075 0.271-0.004 0.407-0.004 0.219 0 0.451 0.022 0.667-0.015 0.421-0.072 0.857-0.071 1.262-0.226 0.259-0.1 0.417 0.228 0.295 0.441-0.211 0.369-1.519-0.106-1.787-0.184-0.136-0.040-0.396-0.046-0.499-0.157-0.012-0.013-0.082-0.136-0.054-0.134 0.496 0.030 0.999 0.151 1.48 0.268 0.245 0.060 0.62 0.079 0.836 0.222 0.439 0.292 0.399 1.286 0.376 1.722-0.033 0.61-0.102 1.308-0.476 1.806-0.031 0.041-0.137 0.314-0.184 0.314-0.244 0-0.427-0.463-0.518-0.617-0.225-0.383-0.485-0.661-0.84-0.924-0.117-0.086-0.398-0.33-0.138-0.445 1.181-0.522 0.846 1.262 0.368 1.756-0.238 0.247-0.401 0.397-0.744 0.383-0.239-0.009-0.276-0.227-0.173-0.418 0.303-0.56 0.919-1.095 1.335-1.584 0.322-0.379 0.586-0.95 0.986-1.243 0.23-0.168 0.016 0.412 0 0.456-0.166 0.467-0.377 0.971-0.702 1.35-0.18 0.21-0.226 0.218-0.203-0.073 0.037-0.465 0.098-0.922 0.123-1.388"></path>
<path fill="none" stroke="#fff" style="stroke: var(--color1, #fff)" stroke-linejoin="miter" stroke-linecap="square" stroke-miterlimit="4" stroke-width="1.4118" d="M25.073 19.066c-0.884 0 0.372 1.523 0.077 1.749-0.309 0.236-1.503-0.152-1.611-0.506-0.078-0.256-0.143-0.29-0.36-0.399-0.19-0.095-0.001-0.071 0.115-0.046 0.394 0.086 0.778 0.192 1.174 0.268 0.669 0.128 1.594 0.295 2.009 0.913 0.182 0.271 0.279 0.797 0.314 1.12 0.015 0.138-0.069 0.438 0.123 0.476 1.398 0.274 3.13-0.678 4.31-1.281 0.061-0.031 0.214-0.135 0.146-0.146-0.449-0.069-0.969-0.008-1.419-0.008-0.887 0-1.774-0.006-2.661 0-0.911 0.006 0.865 0.141 0.959 0.153 1.129 0.146 2.302 0.269 3.394 0.61 0.307 0.096 0.858 0.298 1.101 0.533 0.248 0.24-1.497 0.617-1.588 0.633-0.312 0.055-1.921 0.37-0.667 0.104 4.158-0.883 8.313-1.737 12.529-2.305 0.7-0.094 0.071 0.048-0.088 0.104-1.083 0.38-2.174 0.712-3.29 0.982-1.125 0.272-2.26 0.492-3.402 0.683-0.543 0.091-2.176 0.301-1.626 0.288 3.030-0.074 6.063-0.349 9.093-0.472 1.17-0.048 2.345-0.123 3.517-0.123 0.315 0 0.463 0.001 0.092 0.077-0.411 0.084-1.323 0.219-1.645 0.265-1.526 0.217-3.057 0.381-4.594 0.495-1.364 0.101-2.824 0.276-4.195 0.169-0.265-0.021 0.47-0.261 0.729-0.322 1.982-0.467 4.012-0.735 6.013-1.104 1.198-0.221 2.393-0.459 3.589-0.69 0.898-0.173 0.391-0.151-0.115-0.115-0.676 0.048-1.344 0.149-2.010 0.276-0.223 0.043-0.66 0.131-0.909 0.199-0.071 0.020-0.248 0.063-0.192 0.111 0.163 0.14 0.773 0.040 0.917 0.027 0.833-0.077 1.65-0.25 2.462-0.445 0.152-0.036 0.58-0.193 0.46-0.092-0.408 0.343-0.844 0.658-1.254 1.001-0.175 0.146-1.883 1.303-1.637 1.637 0.147 0.201 0.803 0.084 1.001 0.084 0.347 0 0.301 0.068 0.449-0.253 0.383-0.833 0.871-1.601 1.308-2.404 0.081-0.15 0.185-0.33 0.219-0.502 0.033-0.171-0.221 0.271-0.307 0.422-0.739 1.302-1.519 2.625-2.477 3.781-0.117 0.142 0.148-0.338 0.238-0.499 0.527-0.944 1.057-1.892 1.634-2.807 0.056-0.089 1.628-2.268 1.714-2.086s0.043 0.561 0.042 0.736c-0.007 0.813-0.070 1.615-0.207 2.416-0.062 0.365-0.142 0.726-0.195 1.093-0.025 0.174 0.015-0.351 0.038-0.525 0.097-0.723 0.502-1.651 0.364-2.385-0.030-0.16-0.2 0.257-0.291 0.391-0.459 0.677-0.919 1.349-1.3 2.075-0.208 0.394-0.378 0.807-0.587 1.2-0.013 0.024-0.265 0.531-0.207 0.176 0.184-1.128 0.589-2.168 1.055-3.206 0.039-0.087 0.662-1.657 0.203-1.143-0.731 0.82-1.297 1.874-1.845 2.822-0.067 0.116-0.207 0.479-0.203 0.345 0.015-0.473 0.295-1.033 0.445-1.465 0.242-0.696 0.492-1.389 0.752-2.078 0.199-0.528 0.508-1.091 0.629-1.645 0.101-0.466-2.081 0.814-2.186 0.878-0.533 0.323-1.057 0.662-1.607 0.959-0.251 0.136-0.595 0.238-0.084 0.249 1.545 0.035 3.011-0.339 4.514-0.64 0.027-0.006 0.566-0.062 0.606-0.18 0.018-0.054-0.101-0.061-0.157-0.065-0.22-0.018-0.45-0.004-0.667 0.023-1.196 0.151-2.455 0.618-3.501 1.219-0.094 0.054-0.248 0.112-0.061 0.134 0.823 0.097 1.668 0.014 2.474-0.169 0.541-0.123 1.061-0.311 1.569-0.533 0.148-0.065 0.401-0.156 0.077-0.184-1.568-0.137-3.121-0.088-4.682 0.081-0.427 0.046-0.855 0.097-1.285 0.111-0.203 0.007 0.405-0.037 0.606-0.069 0.811-0.128-0.342-0.137-0.506-0.134-0.788 0.011-1.575 0.039-2.362 0.081-0.589 0.031-1.523-0.068-2.094 0.153-0.799 0.31 1.813 0.128 2.554-0.303 0.197-0.115 0.554-0.357 0.184-0.491-0.558-0.203-1.194-0.269-1.779-0.33-0.877-0.091-1.849 0.076-2.707-0.096-0.671-0.134-1.429-0.053-2.105 0.027-0.135 0.016-0.743 0.048-0.871 0.219-0.028 0.037 0.494 0.164 0.514 0.169 0.131 0.031 0.327 0.031 0.449 0.092 0.232 0.116-0.447 0.274-0.694 0.353-0.649 0.208-1.306 0.396-1.963 0.575-0.465 0.127-1.223 0.174-1.649 0.43-0.132 0.079 0.309-0.012 0.46-0.038 0.607-0.106 1.191-0.301 1.753-0.552 0.168-0.075 0.63-0.17 0.479-0.276-0.193-0.136-1.233 0.163-1.365 0.184-0.968 0.157-1.935 0.303-2.911 0.403-0.566 0.058-0.85 0.075-1.384 0.115-0.143 0.011-0.549-0.041-0.43 0.038 0.125 0.083 0.788-0.058 0.874-0.073 0.595-0.101 1.201-0.258 1.756-0.499 0.135-0.058 0.143-0.047 0.119-0.127-0.041-0.137 0.402-0.36 0.472-0.407 0.061-0.041 0.887-0.555 0.545-0.602-0.657-0.091-1.367-0.015-2.029-0.015-0.823 0 0.426 0 0.594 0 0.522 0 1.354-0.166 1.852 0.015 0.115 0.042-0.134 0.218-0.242 0.276-0.478 0.257-0.996 0.438-1.488 0.667-0.070 0.032-0.261 0.138-0.184 0.138 0.431 0 0.885-0.090 1.296-0.211 0.015-0.004 0.673-0.172 0.621-0.341-0.022-0.073-0.384-0.065-0.23-0.061 0.378 0.010 0.755 0.039 1.131 0.073 0.294 0.026 1.125-0.038 1.384 0.153 0.106 0.078-0.859 1.414-0.936 1.576-0.057 0.12-0.17 0.397 0.092 0.349 0.74-0.134 1.546-0.845 2.159-1.227 0.729-0.454 1.466-0.898 2.19-1.361 0.192-0.123 0.618-0.401 0.821-0.56 0.065-0.051 0.226-0.182 0.146-0.199-0.26-0.057-0.871 0.243-1.055 0.314-0.975 0.38-1.952 0.805-2.865 1.319-0.156 0.088-0.558 0.277-0.399 0.36 0.399 0.209 1.43-0.009 1.81-0.046 0.969-0.095 1.934-0.242 2.888-0.433 0.557-0.111 0.599-0.127 1.062-0.253 0.158-0.043 0.242-0.077 0.019 0.023-0.613 0.275-1.238 0.523-1.852 0.794-0.097 0.043-1.486 0.533-1.511 0.759-0.002 0.017 0.205 0.015 0.215 0.015 0.043 0 0.234 0.023 0.257-0.035 0.010-0.025-0.673-0.025-0.755 0.019-0.097 0.052 0.22 0.016 0.33 0.012 0.039-0.002 0.483-0.001 0.483-0.096 0-0.135-1.673 0.073-1.772 0.084-0.378 0.043-0.763 0.068-1.135 0.15-0.327 0.071-0.051 0.033 0.069-0.015 0.768-0.307 1.445-0.8 2.155-1.216 0.059-0.034 0.549-0.115 0.475-0.023-0.396 0.494-1.288 0.831-1.871 0.989-0.737 0.2-1.643 0.192-2.397 0.084-0.476-0.068-0.967-0.251-1.43-0.383-0.208-0.059-0.359-0.214-0.583-0.261-0.439-0.092-0.997-0.237-1.373-0.487-0.074-0.049-0.349-0.279-0.376-0.357-0.067-0.193 0.245-0.143 0.245-0.226 0-0.003-0.561-0.201-0.629-0.28-0.075-0.088-0.046-0.231-0.046-0.337 0-0.403 0.567-0.408 0.871-0.449 2.181-0.291 4.338 0.228 6.508-0.28 0.658-0.154 1.295-0.368 1.971-0.43 0.12-0.011 1.176-0.154 0.809-0.184-0.949-0.079-1.927-0.030-2.88-0.061-0.332-0.011-0.676-0.034-1.009-0.012-0.44 0.030 0.873 0.123 1.312 0.173 1.382 0.158 2.756 0.238 4.145 0.238 0.418 0 0.762 0.16 1.177 0.199 0.82 0.077 1.651 0.077 2.474 0.077 0.559 0-0.32 0.329-0.502 0.418-0.26 0.127-1.741 0.525-0.894 0.809 1.041 0.35 2.191 0.361 3.275 0.361 0.135 0 1.403-0.062 0.629 0.015-0.655 0.066-1.292 0.123-1.952 0.123-0.257 0-1.027 0.018-0.771 0 0.397-0.028 1.538-0.295 1.143-0.341-0.319-0.038-0.662-0.073-0.982-0.073"></path>
<path fill="none" stroke="#30439f" style="stroke: var(--color4, #30439f)" stroke-linejoin="miter" stroke-linecap="butt" stroke-miterlimit="4" stroke-width="0.4706" d="M31.765 16c0 8.707-7.058 15.765-15.765 15.765s-15.765-7.058-15.765-15.765c0-8.707 7.058-15.765 15.765-15.765s15.765 7.058 15.765 15.765z"></path>
</symbol>
<symbol id="instagram" viewBox="0 0 32 32">
<path d="M16 2.881c4.275 0 4.781 0.019 6.462 0.094 1.563 0.069 2.406 0.331 2.969 0.55 0.744 0.288 1.281 0.638 1.837 1.194 0.563 0.563 0.906 1.094 1.2 1.838 0.219 0.563 0.481 1.412 0.55 2.969 0.075 1.688 0.094 2.194 0.094 6.463s-0.019 4.781-0.094 6.463c-0.069 1.563-0.331 2.406-0.55 2.969-0.288 0.744-0.637 1.281-1.194 1.837-0.563 0.563-1.094 0.906-1.837 1.2-0.563 0.219-1.413 0.481-2.969 0.55-1.688 0.075-2.194 0.094-6.463 0.094s-4.781-0.019-6.463-0.094c-1.563-0.069-2.406-0.331-2.969-0.55-0.744-0.288-1.281-0.637-1.838-1.194-0.563-0.563-0.906-1.094-1.2-1.837-0.219-0.563-0.481-1.413-0.55-2.969-0.075-1.688-0.094-2.194-0.094-6.463s0.019-4.781 0.094-6.463c0.069-1.563 0.331-2.406 0.55-2.969 0.288-0.744 0.638-1.281 1.194-1.838 0.563-0.563 1.094-0.906 1.838-1.2 0.563-0.219 1.412-0.481 2.969-0.55 1.681-0.075 2.188-0.094 6.463-0.094zM16 0c-4.344 0-4.887 0.019-6.594 0.094-1.7 0.075-2.869 0.35-3.881 0.744-1.056 0.412-1.95 0.956-2.837 1.85-0.894 0.888-1.438 1.781-1.85 2.831-0.394 1.019-0.669 2.181-0.744 3.881-0.075 1.713-0.094 2.256-0.094 6.6s0.019 4.887 0.094 6.594c0.075 1.7 0.35 2.869 0.744 3.881 0.413 1.056 0.956 1.95 1.85 2.837 0.887 0.887 1.781 1.438 2.831 1.844 1.019 0.394 2.181 0.669 3.881 0.744 1.706 0.075 2.25 0.094 6.594 0.094s4.888-0.019 6.594-0.094c1.7-0.075 2.869-0.35 3.881-0.744 1.050-0.406 1.944-0.956 2.831-1.844s1.438-1.781 1.844-2.831c0.394-1.019 0.669-2.181 0.744-3.881 0.075-1.706 0.094-2.25 0.094-6.594s-0.019-4.887-0.094-6.594c-0.075-1.7-0.35-2.869-0.744-3.881-0.394-1.063-0.938-1.956-1.831-2.844-0.887-0.887-1.781-1.438-2.831-1.844-1.019-0.394-2.181-0.669-3.881-0.744-1.712-0.081-2.256-0.1-6.6-0.1v0z"></path>
<path d="M16 7.781c-4.537 0-8.219 3.681-8.219 8.219s3.681 8.219 8.219 8.219 8.219-3.681 8.219-8.219c0-4.537-3.681-8.219-8.219-8.219zM16 21.331c-2.944 0-5.331-2.387-5.331-5.331s2.387-5.331 5.331-5.331c2.944 0 5.331 2.387 5.331 5.331s-2.387 5.331-5.331 5.331z"></path>
<path d="M26.462 7.456c0 1.060-0.859 1.919-1.919 1.919s-1.919-0.859-1.919-1.919c0-1.060 0.859-1.919 1.919-1.919s1.919 0.859 1.919 1.919z"></path>
</symbol>
<symbol id="menu" viewBox="0 0 32 32">
<path d="M2 6h28v6h-28zM2 14h28v6h-28zM2 22h28v6h-28z"></path>
</symbol>
<symbol id="cross" viewBox="0 0 32 32">
<path d="M31.708 25.708c-0-0-0-0-0-0l-9.708-9.708 9.708-9.708c0-0 0-0 0-0 0.105-0.105 0.18-0.227 0.229-0.357 0.133-0.356 0.057-0.771-0.229-1.057l-4.586-4.586c-0.286-0.286-0.702-0.361-1.057-0.229-0.13 0.048-0.252 0.124-0.357 0.228 0 0-0 0-0 0l-9.708 9.708-9.708-9.708c-0-0-0-0-0-0-0.105-0.104-0.227-0.18-0.357-0.228-0.356-0.133-0.771-0.057-1.057 0.229l-4.586 4.586c-0.286 0.286-0.361 0.702-0.229 1.057 0.049 0.13 0.124 0.252 0.229 0.357 0 0 0 0 0 0l9.708 9.708-9.708 9.708c-0 0-0 0-0 0-0.104 0.105-0.18 0.227-0.229 0.357-0.133 0.355-0.057 0.771 0.229 1.057l4.586 4.586c0.286 0.286 0.702 0.361 1.057 0.229 0.13-0.049 0.252-0.124 0.357-0.229 0-0 0-0 0-0l9.708-9.708 9.708 9.708c0 0 0 0 0 0 0.105 0.105 0.227 0.18 0.357 0.229 0.356 0.133 0.771 0.057 1.057-0.229l4.586-4.586c0.286-0.286 0.362-0.702 0.229-1.057-0.049-0.13-0.124-0.252-0.229-0.357z"></path>
</symbol>
</defs>
</svg>
